<?xml version="1.0" encoding="utf-8"?>
<!-- Generator: Adobe Illustrator 19.1.0, SVG Export Plug-In . SVG Version: 6.00 Build 0)  -->
<svg version="1.1" id="_x36_0_x25_BLUE" xmlns="http://www.w3.org/2000/svg" xmlns:xlink="http://www.w3.org/1999/xlink" x="0px"
	 y="0px" viewBox="-412 413 175 175" style="enable-background:new -412 413 175 175;" xml:space="preserve">
<style type="text/css">
	.st0{fill:#DDDDDD;}
	.st1{fill:#20C3F3;}
	.st2{fill:#FFFFFF;}
	.st3{enable-background:new    ;}
	.st4{fill:#95969A;}
	.st5{fill:none;stroke:#EEEEEE;stroke-width:10;stroke-miterlimit:10;}
</style>
<g>
	<circle class="st0" cx="-324.6" cy="500.4" r="79.2"/>
	<g>
		<path class="st1" d="M-324.6,420.5v79.8l-50,62.6c13.7,10.8,31,17.2,49.8,17.2c44.4,0,80.3-35.7,80.3-79.8
			C-244.5,456.3-280.4,420.7-324.6,420.5z"/>
	</g>
	<circle class="st2" cx="-324.6" cy="500.4" r="45.7"/>
	<g class="st3">
		<path class="st2" d="M-336.5,490.5c-2.3,2-10.9,9.8-12.3,25.2h-6.7c1.3-16.5,11.5-25,11.5-25h-15.8V485h23.3V490.5z"/>
		<path class="st2" d="M-332,509.4c1.1,0.6,3.3,1.3,5.4,1.3c5.6,0,9.3-3.1,9.7-8.7c-1.3,1.9-3.9,3.3-7.1,3.3
			c-5.7,0-10.6-4-10.6-10.3c0-6.3,5-10.8,11.7-10.8c6.7,0,12.2,4.7,12.2,14.5c0,11-5.5,17.5-16,17.5c-2.6,0-5.5-0.7-7.1-1.7
			L-332,509.4z M-323,489.9c-2.8,0-5.2,2-5.2,5c0,3.1,2.4,5,5.2,5c2.9,0,5.3-2,5.3-5S-320.1,489.9-323,489.9z"/>
	</g>
	<g class="st3">
		<path class="st2" d="M-302.3,495.7c2.6,0,4.9,2.1,4.9,4.8c0,2.7-2.3,4.8-4.9,4.8s-4.9-2.1-4.9-4.8
			C-307.1,497.8-304.9,495.7-302.3,495.7z M-304.7,515.7l14.2-19.8h2.7l-14.2,19.8H-304.7z M-302.3,502.9c1.3,0,2.3-1,2.3-2.4
			c0-1.4-1-2.4-2.3-2.4c-1.3,0-2.3,1-2.3,2.4C-304.6,501.9-303.6,502.9-302.3,502.9z M-290.2,506.3c2.6,0,4.9,2.1,4.9,4.8
			c0,2.7-2.3,4.8-4.9,4.8c-2.6,0-4.9-2.1-4.9-4.8C-295,508.4-292.8,506.3-290.2,506.3z M-290.2,513.5c1.3,0,2.3-1,2.3-2.4
			c0-1.4-1-2.4-2.3-2.4c-1.3,0-2.4,1-2.4,2.4C-292.5,512.5-291.5,513.5-290.2,513.5z"/>
	</g>
	<g class="st3">
		<path class="st4" d="M-340.6,490.3c-1.3-0.6-3.1-1.1-5-1.1c-5.2,0-9.4,3-10.1,8.8c1.1-1.7,3.7-3.4,7.3-3.4c6.3,0,10.6,4,10.6,10.3
			c0,6.3-5.1,10.8-11.8,10.8c-6.7,0-12.4-4.8-12.4-14.1c0-11,6.9-18,17-18c2.8,0,5.1,0.7,6.4,1.4L-340.6,490.3z M-349.9,510.2
			c3,0,5.4-2,5.4-5.1s-2.5-5.1-5.4-5.1c-2.9,0-5.4,1.9-5.4,5.1C-355.3,508.2-352.7,510.2-349.9,510.2z"/>
		<path class="st4" d="M-332.1,488.8c2-3,5.3-5.1,10.1-5.1c4.8,0,8.1,2.1,10,5.1c2.1,3.2,2.7,7,2.7,10.9c0,3.9-0.7,7.7-2.7,10.9
			c-2,3-5.3,5.1-10,5.1c-4.8,0-8.1-2.1-10.1-5.1c-2.1-3.2-2.7-7-2.7-10.9C-334.8,495.8-334.2,491.9-332.1,488.8z M-326.7,507.5
			c0.9,1.5,2.4,2.5,4.6,2.5c2.3,0,3.6-1,4.6-2.5c1.2-1.8,1.7-4.6,1.7-7.8s-0.5-5.9-1.7-7.8c-0.9-1.5-2.3-2.5-4.6-2.5
			c-2.2,0-3.7,1-4.6,2.5c-1.2,1.8-1.7,4.6-1.7,7.8S-327.9,505.6-326.7,507.5z"/>
	</g>
	<g class="st3">
		<path class="st4" d="M-300.8,495c2.6,0,4.9,2.1,4.9,4.8c0,2.7-2.3,4.8-4.9,4.8c-2.6,0-4.9-2.1-4.9-4.8
			C-305.6,497.1-303.4,495-300.8,495z M-303.2,515l14.2-19.8h2.7l-14.2,19.8H-303.2z M-300.8,502.2c1.3,0,2.3-1,2.3-2.4
			c0-1.4-1-2.4-2.3-2.4c-1.3,0-2.3,1-2.3,2.4C-303.1,501.2-302.1,502.2-300.8,502.2z M-288.7,505.6c2.6,0,4.9,2.1,4.9,4.8
			c0,2.7-2.3,4.8-4.9,4.8c-2.6,0-4.9-2.1-4.9-4.8C-293.6,507.7-291.3,505.6-288.7,505.6z M-288.7,512.8c1.3,0,2.3-1,2.3-2.4
			c0-1.4-1-2.4-2.3-2.4c-1.3,0-2.3,1-2.3,2.4C-291,511.8-290,512.8-288.7,512.8z"/>
	</g>
</g>
<circle class="st5" cx="-324" cy="500.7" r="77"/>
</svg>
